<svg xmlns="http://www.w3.org/2000/svg" viewBox="0 0 267.5 451.81"><defs><style>.cls-1{opacity:0.75;}.cls-2,.cls-26{fill:#324047;}.cls-3{fill:#b64148;}.cls-4{fill:#b1353d;}.cls-5{fill:#a93237;}.cls-6{fill:#96b6c1;}.cls-7{fill:#627985;}.cls-8{fill:#c24861;}.cls-9{fill:#29c5d0;}.cls-10{fill:#c13f45;}.cls-11{fill:#c1474b;}.cls-12{fill:#c3595c;}.cls-13{fill:#52bbcb;}.cls-14{fill:#c1474c;}.cls-15{fill:#c03b58;}.cls-16{fill:#dadde1;}.cls-17,.cls-18,.cls-22,.cls-24,.cls-27{fill:none;}.cls-17{stroke:#000;opacity:0.65;}.cls-17,.cls-18,.cls-22,.cls-24,.cls-27,.cls-30,.cls-31,.cls-32{stroke-miterlimit:10;}.cls-18{stroke:#ceab00;}.cls-18,.cls-22{stroke-width:3px;}.cls-19{fill:#ceab00;}.cls-20,.cls-21,.cls-28{font-size:7px;}.cls-20{fill:#443700;}.cls-20,.cls-21,.cls-28,.cls-29{font-family:Tahoma-Bold, Tahoma;font-weight:700;}.cls-21,.cls-29{fill:#17183d;}.cls-22,.cls-24{stroke:#3072a8;}.cls-23{fill:#3072a8;}.cls-25{fill:#834380;}.cls-26{opacity:0.7;}.cls-27{stroke:#6d236a;}.cls-28{fill:#6d236a;}.cls-29{font-size:5px;}.cls-30,.cls-32{stroke:lime;}.cls-30,.cls-31,.cls-32{stroke-width:5px;}.cls-30{opacity:0.5;}.cls-31{stroke:red;}.cls-33{fill:#fff;}</style></defs><title>Asset 11</title><g id="Layer_2" data-name="Layer 2"><g id="Layer_5" data-name="Layer 5" class="cls-1"><path class="cls-2" d="M94.7,87l-.26.28C92,89,89.47,90.79,87,92.5a3,3,0,0,0-1.43,3c.46,5.59.78,11.2,1.24,16.79a27.35,27.35,0,0,0,.43,5.19,9.38,9.38,0,0,0,.25,3.34l0,14.68c0,2.18,0,4.35.08,6.53-.18,2.39-.07,4.78-.07,7.17,0,4.61,0,9.23.07,13.85,0,.6,0,1.2-.08,1.79-.27,4.86.57,9.66.85,14.49a10.19,10.19,0,0,0,.52,3.37c0,.45.09.91.13,1.36a1.73,1.73,0,0,0,.17,1.28,6.66,6.66,0,0,0,.18,2,31.29,31.29,0,0,0-.06,5.56c-.17,2.85-.19,5.7-.09,8.56a6.21,6.21,0,0,0-.22,2.27c-.14,7.64-.12,15.28-.3,22.92-.24,10.32-.36,20.64-.42,30.95-.11,18.73-.28,37.45-.62,56.18-.22,11.35-.13,22.71-.14,34.06,0,.6.06,1.2.1,1.8s-.07,1-.07,1.47q0,15.89,0,31.78c0,.92.07,1.85.11,2.78a2.65,2.65,0,0,0-.07.48q0,13.5,0,27a3.66,3.66,0,0,0,.31,1.42,6.67,6.67,0,0,0,2.8,3.51c1.41.78,2.52,2.1,4.21,2.4A3.19,3.19,0,0,0,98,422c2-.12,3.93-.05,5.9-.05,4.64,0,9.28,0,13.92.27,5.56.34,11.12.77,16.69.78h33.77c1.58,0,3.17-.06,4.75-.15,4.74-.25,9.49-.57,14.23-.79,5.52-.27,11-.1,16.55,0a3.5,3.5,0,0,0,3.33-1.58c1.76-.43,3-1.68,4.45-2.65a6.21,6.21,0,0,0,2.81-5.54c0-8.23,0-16.45,0-24.68,0-.65-.07-1.3-.11-1.95,0-.93.12-1.86.12-2.78q0-13.44,0-26.87c0-1.91-.07-3.82-.1-5.73,0-.76.09-1.52.09-2.28q.06-20.46-.24-40.91c-.17-10.15-.14-20.3-.23-30.44,0-2.13-.16-4.25-.25-6.38,0-3.3,0-6.6,0-9.9a15.7,15.7,0,0,0-.17-3.56,22,22,0,0,0-.1-6.17c.1-5.71,0-11.42-.12-17.13a3.73,3.73,0,0,0-.11-.64,16.67,16.67,0,0,0-.09-5.18c0-.77.06-1.53.05-2.29q-.17-17.91-.35-35.83a56.88,56.88,0,0,1,.46-7.5,138.7,138.7,0,0,0,1.19-18.1c-.07-6.38,0-12.76,0-19.15,0-.59-.05-1.19-.08-1.79.26-8.57-.15-17.14.32-25.71a3.62,3.62,0,0,0,.37-1.74q.48-7.08.95-14.17c.14-2.12.24-4.24.44-6.35a2.19,2.19,0,0,0-1-2.21l-.93-.67-6.85-5c-.43-1.8-1.85-2.31-3.42-2.55-3.35-.5-6.75-.51-10.11-.85-2.34-.23-4.67-.51-7-.59C182.66,83,178.34,83,174,83a19.52,19.52,0,0,1-2.29-.12q-7-1-13.93-2a32.74,32.74,0,0,0-7.48-.7c-4.51.39-9,1-13.47,1.71a82.9,82.9,0,0,1-13.35,1.18,102.6,102.6,0,0,0-12.27.39c-3,.32-6,.57-9,.72-1.58.08-3.16.26-4.73.48S95,85.65,94.68,87Z"/><path class="cls-3" d="M214.24,350.27c0,1.9.1,3.81.1,5.72q0,13.44,0,26.87c0,.92-.08,1.85-.12,2.78a2.05,2.05,0,0,0-.9,1.3c-.52,1.59-1.14,3.16-1.54,4.79-.77,3.17-1.86,6.23-2.84,9.33-.16.51-.25,1.06-.8,1.35-.22-2.32-.46-4.63-.67-7-.26-2.8-.43-5.62-.79-8.41a13,13,0,0,0-.53-3.68c.18-1.8-.58-3.43-.94-5.13-.78-3.62-1.63-7.23-2.39-10.85-.71-3.37-1.74-6.66-2.24-10.06a4.08,4.08,0,0,0-.66-1.83c-.27-2.89-1.31-5.61-1.86-8.45-.72-3.68-1.86-7.27-2.64-10.95s-1.81-7.29-2.71-10.94c-1.64-6.72-3.05-13.5-4.93-20.16.16-5.95,0-11.89.24-17.84.34-9.71,0-19.43.4-29.14.09-2.09-.14-2.24-2.21-2.26H115.94c-.44,0-.88,0-1.31,0A1.17,1.17,0,0,0,113.4,257c0,.38,0,.76,0,1.14.07,3.11,0,6.21.25,9.33a73.93,73.93,0,0,1,.06,8c-.18,9.83.5,19.64.35,29.47-.22.84-.47,1.68-.67,2.53-.71,3-1.4,5.93-2.12,8.9-1,4.23-2.1,8.45-3.12,12.69-1,4-1.8,8.07-2.87,12.07-1,3.84-1.85,7.73-2.78,11.6a10.11,10.11,0,0,0-.58,3,27.78,27.78,0,0,0-1.53,5.65c-1.14,4.72-2.13,9.47-3.18,14.21a49,49,0,0,0-1.52,7.68,7.22,7.22,0,0,0-.28,1.11q-.7,7.36-1.36,14.75a6,6,0,0,1-.65,2.5,6.32,6.32,0,0,1-1.16-2.49c-1.11-3.62-2.16-7.26-3.27-10.88a4.91,4.91,0,0,0-1.38-2.7c0-.93-.11-1.86-.11-2.78q0-15.9,0-31.78c0-.49,0-1,.07-1.47a1.16,1.16,0,0,0,.89-1,37.15,37.15,0,0,0,.88-4.47c.25-3.59,1.26-7.05,1.7-10.6.4-3.17,1.16-6.29,1.36-9.5,1.17-.18,1-1.22,1.32-2A3.78,3.78,0,0,0,96.09,318c0,.32,0,.65,0,1s.05.56.35.66.46-.21.64-.39c4.8-4.77,9.57-9.57,14.4-14.31a3.75,3.75,0,0,0,1.17-3q-.36-22.28-.65-44.56a17.39,17.39,0,0,0-.57-3.87c-1.71-6.89-3.4-13.77-5.13-20.65-1.58-6.24-3.2-12.47-4.77-18.71-.48-1.91-.89-3.83-1.33-5.74a.57.57,0,0,0,0-.29l-.61-1.39-2-7.54c-.33-2.53-.66-5.07-1-7.61a1.45,1.45,0,0,0-.66-1.23l.32-3h71.53l37,0V188H204L99.12,188c-1.84,0-2.28.54-2,2.36,0,.22.11.43.16.64.41,1.64.83,3.28,1.24,4.92,1.06,4.35,2.1,8.7,3.19,13,1.14,4.55,2.35,9.09,3.48,13.65,1.43,5.71,2.8,11.45,4.23,17.16,1.17,4.66,2.4,9.31,3.59,14,.44,1.7.43,1.71,2.14,1.72h71.14c2.1,0,2.12,0,2.65-2q1.44-5.62,2.84-11.27c1.43-5.71,2.84-11.44,4.29-17.15,1.15-4.55,2.36-9.09,3.51-13.64,1.67-6.62,3.31-13.24,5-19.85a9.17,9.17,0,0,0,.23-3.57c1,.75,1,1.85,1,2.95-.57.3-.6.85-.68,1.4-.31,2.16-.48,4.34-1,6.47-.65,1.57-.55,3.33-1.17,4.89a10.1,10.1,0,0,0-.48,5.57c-.17-.55.1-1.19-.53-1.95-.36,1.19-.73,2.13-.92,3.12-.82,4.23-2.13,8.34-3.06,12.55-.75,3.41-1.7,6.77-2.52,10.16-1.5,6.2-3.16,12.36-4.68,18.56a26.11,26.11,0,0,0-1.09,6.1c0,6.38-.18,12.77-.25,19.15-.1,8.4-.17,16.81-.27,25.21a3.07,3.07,0,0,0,.89,2.49c4.7,4.61,9.33,9.29,14,13.94a4.41,4.41,0,0,0,1,.79c.48.26.48-.23.61-.49a3.35,3.35,0,0,0,2.38,2.84c.07.83.31,1.54,1.31,1.65a30.56,30.56,0,0,0,.68,6.81c.42,2.25,1,4.48,1.21,6.75.36,3.92,1.49,7.7,1.89,11.6A1.81,1.81,0,0,0,214.24,350.27Z"/><path class="cls-4" d="M205.83,190.92c0-1.1,0-2.2-1-2.95h0c0-.21,0-.42,0-.63,1.08-.19,1.16-1.1,1.22-1.88a30.17,30.17,0,0,1,.89-4.64c.53-2.39,1.07-4.78,1.55-7.18a26.31,26.31,0,0,0,.61-4.68,2.42,2.42,0,0,0,1.5-2.33,56.62,56.62,0,0,0,.81-7.12c0-1.73.27-3.46.44-5.18a13.85,13.85,0,0,1,.41-3.38c.81-2.26.44-4.47.11-6.7-.1-.7.05-1,.72-1.15.38,0,.76-.06,1.14-.09,0,.6.08,1.2.08,1.79,0,6.39-.05,12.77,0,19.15a138.7,138.7,0,0,1-1.19,18.1,56.88,56.88,0,0,0-.46,7.5q.2,17.91.35,35.83c0,.76,0,1.52-.05,2.29a8.8,8.8,0,0,0,.09,5.18,3.73,3.73,0,0,1,.11.64c.09,5.71.22,11.42.12,17.13-.54,1.74-.19,3.52-.25,5.28a1.4,1.4,0,0,0,.35.89,15.7,15.7,0,0,1,.17,3.56c0,3.3,0,6.6,0,9.9-1.33.16-2.26-.67-3.23-1.34a2.6,2.6,0,0,0-2.57-.61c-.07-4.2,0-8.4-.3-12.6-.28-3.64,0-7.3-.3-11-.31-3.41-.06-6.86-.35-10.3s0-6.75-.31-10.14c-.3-3.58-.22-7.19-.31-10.79C206,206,206.18,198.45,205.83,190.92Z"/><path class="cls-4" d="M96.33,187.32c-.11,1-.21,2-.32,3-.15,5.07.18,10.14-.28,15.22-.29,3.19-.07,6.42-.33,9.65-.29,3.41-.05,6.86-.32,10.3-.32,4.12,0,8.28-.34,12.43s-.15,8.39-.28,12.59c-.19,5.62-.64,11.23-.43,16.86,0,.22,0,.43,0,.65a3.19,3.19,0,0,0-1.76,0c-1.45.41-2.16-.23-2-1.77a5.38,5.38,0,0,0,0-1.79,5.81,5.81,0,0,1,0-2.59,3.17,3.17,0,0,0,0-1.3,19.24,19.24,0,0,1-.23-4.08c0-5.35,0-10.7,0-16.05,0-1.63,0-3.28-.16-4.89s.12-3.35,0-5c-.14-2,.18-4,.12-6-.07-2.33-.25-4.66-.14-7a12.39,12.39,0,0,0,0-2.28c-.35-2.7.12-5.41-.13-8.12-.18-1.89-.4-3.76-.68-5.63-.1-2.86-.08-5.71.09-8.56a4.89,4.89,0,0,0,.06-5.56,6.66,6.66,0,0,1-.18-2,.85.85,0,0,0-.17-1.28c0-.45-.09-.91-.13-1.36a5,5,0,0,0,.93-2.75,14.93,14.93,0,0,1,.57-4,17,17,0,0,0-1.58-11.6A2.15,2.15,0,0,0,87.55,163c0-4.62-.07-9.24-.07-13.85,0-2.39-.11-4.78.07-7.17a15.86,15.86,0,0,1,5.16.71q0,12.36,0,24.7a32.79,32.79,0,0,0,.46,5c.5,3.18,1.38,6.28,1.94,9.45C95.42,183.73,95.91,185.52,96.33,187.32Z"/><path class="cls-5" d="M89.17,201.44c.28,1.87.5,3.74.68,5.63.25,2.71-.22,5.42.13,8.12a12.39,12.39,0,0,1,0,2.28c-.11,2.34.07,4.67.14,7,.06,2-.26,4-.12,6,.11,1.69-.14,3.35,0,5s.17,3.26.16,4.89c0,5.35,0,10.7,0,16.05a19.24,19.24,0,0,0,.23,4.08,3.17,3.17,0,0,1,0,1.3,5.81,5.81,0,0,0,0,2.59,5.38,5.38,0,0,1,0,1.79c-.15,1.54.56,2.18,2,1.77A3.19,3.19,0,0,1,94,268a27.23,27.23,0,0,1-.29,3.26c-.07,3.37-.1,6.75-.28,10.13-.32,6.15.14,12.32-.36,18.48-.26,3.31-.16,6.64-.26,10-.13,4.74-.48,9.48-.42,14.22-.2,3.21-1,6.33-1.36,9.5-.44,3.55-1.45,7-1.7,10.6a37.15,37.15,0,0,1-.88,4.47,1.16,1.16,0,0,1-.89,1c0-.6-.1-1.2-.1-1.8,0-11.35-.08-22.71.14-34.06.34-18.73.51-37.45.62-56.18.06-10.31.18-20.63.42-30.95.18-7.64.16-15.28.3-22.92A6.21,6.21,0,0,1,89.17,201.44Z"/><path class="cls-5" d="M207.82,268.3a2.58,2.58,0,0,1,2.56.61c1,.67,1.9,1.5,3.23,1.34.09,2.13.24,4.25.25,6.38.09,10.14.06,20.29.23,30.44q.33,20.44.24,40.91c0,.76-.06,1.52-.09,2.29a1.81,1.81,0,0,1-1-1.74c-.4-3.9-1.53-7.68-1.89-11.6-.21-2.27-.79-4.5-1.21-6.75a30.56,30.56,0,0,1-.68-6.81c.09-1.37-.23-2.72-.27-4.07-.12-4.09-.28-8.18-.3-12.26,0-8-.41-16-.42-24.05a5.49,5.49,0,0,0,0-.81C207.85,277.56,208.33,272.91,207.82,268.3Z"/><path class="cls-3" d="M214.25,143c-.38,0-.76,0-1.14.09-.67.11-.82.45-.72,1.15.33,2.23.7,4.44-.11,6.7a13.85,13.85,0,0,0-.41,3.38c-.17,1.72-.43,3.45-.44,5.18a56.62,56.62,0,0,1-.81,7.12,2.42,2.42,0,0,1-1.5,2.33q0-13.44,0-26.87c-.55-3.07-.22-6.2-.6-9.29s-.61-6.18-.79-9.28c-.16-2.89-.55-5.75-.55-8.64a13.5,13.5,0,0,1,.13-1.8c.38-2.59.78-5.17,1.17-7.76a12.62,12.62,0,0,0,2-1.84.84.84,0,0,0,0-1.39c-.24-.23-.42-.51-.63-.75-2.13-2.42-4.3-4.79-6.36-7.27-1.44-1.72-2.93-3.22-5.36-3.28a5,5,0,0,1-1.1-.31c-3.46-1-6.91-2-10.45-2.68a14.09,14.09,0,0,0-.82-2.78,6.66,6.66,0,0,1,2.09.06A3,3,0,0,0,190,86.36c3.58,1,7.05,2.26,10.62,3.27A4.71,4.71,0,0,1,203,91q4.67,5.14,9.4,10.21a3.44,3.44,0,0,1,1,2.16c.38,3.91.46,7.82.64,11.74a3,3,0,0,0,.56,2.15C214.1,125.87,214.51,134.44,214.25,143Z"/><path class="cls-6" d="M207.09,420.46a3.5,3.5,0,0,1-3.33,1.58c-5.51-.05-11-.22-16.55,0-4.74.22-9.49.54-14.23.79-1.58.09-3.17.15-4.75.15H134.46c-5.57,0-11.13-.44-16.69-.78-4.64-.28-9.28-.25-13.92-.27-2,0-3.94-.07-5.9.05a3.19,3.19,0,0,1-3.15-1.58.41.41,0,0,0,.19-.2l19.74,0a6.45,6.45,0,0,0,1-.13,51.45,51.45,0,0,0,6.21.1c3.16,0,6.32.14,9.48-.09a6,6,0,0,0,1.79.12h35.16a5.68,5.68,0,0,0,1.79-.13c4,.25,7.94.07,11.92.11a23.08,23.08,0,0,0,4.07-.11,5.74,5.74,0,0,0,.8.12l19.89,0Z"/><path class="cls-5" d="M87.19,117.47a27.35,27.35,0,0,1-.43-5.19c-.46-5.59-.78-11.2-1.24-16.79a3,3,0,0,1,1.43-3c2.52-1.71,5-3.49,7.49-5.24L94.7,87l0,0a8.85,8.85,0,0,1,5.12-1.26c3.42-.06,6.84-.22,10.26-.46a29.9,29.9,0,0,1,4.23-.21,1,1,0,0,1-.71.63c-3.74,1.18-7.45,2.52-11.25,3.49a8.78,8.78,0,0,0-4.72,3c-1.68,2-3.42,4-5.23,5.85-1.24,1.3-2.39,2.69-3.57,4a3.3,3.3,0,0,0-.67,2.6c.09,3.74-.08,7.46-.33,11.19A2.12,2.12,0,0,1,87.19,117.47Z"/><path class="cls-5" d="M214.57,117.3a3,3,0,0,1-.56-2.15c-.18-3.92-.26-7.83-.64-11.74a3.44,3.44,0,0,0-1-2.16Q207.65,96.18,203,91a4.71,4.71,0,0,0-2.32-1.41c-3.57-1-7-2.3-10.62-3.27a3,3,0,0,1-2.19-1.28c4.58.14,9.15.61,13.74.67,2,0,3.93.06,5.61,1.33a1,1,0,0,0,.31.09l6.85,5,.93.67a2.19,2.19,0,0,1,1,2.21c-.2,2.11-.3,4.23-.44,6.35q-.48,7.08-.95,14.17A3.62,3.62,0,0,1,214.57,117.3Z"/><path class="cls-3" d="M92.71,142.73a15.86,15.86,0,0,0-5.16-.71c0-2.18-.07-4.35-.08-6.53l0-14.68c.76-.23,1-.85,1.36-1.51a19.59,19.59,0,0,1,1.84-3.41,10.3,10.3,0,0,0,1.87-4.45,20.43,20.43,0,0,0-.09-6.8l1,.59a15.13,15.13,0,0,0,.19,1.78,45.41,45.41,0,0,1,.68,15.25,94.41,94.41,0,0,0-.94,12.35c0,.55-.06,1.09-.11,1.63q-.26,2.92-.52,5.85Z"/><path class="cls-7" d="M207.51,87.17a1,1,0,0,1-.31-.09c-1.68-1.27-3.65-1.31-5.61-1.33-4.59-.06-9.16-.53-13.74-.67a6.66,6.66,0,0,0-2.09-.06,84,84,0,0,0-8.54-.52c-.71-.07-1.41-.16-2.12-.2-1.85-.12-3.71-.09-5.54-.34-4.76-.65-9.49-1.41-14.23-2.14a24.23,24.23,0,0,0-7.65-.16c-6.29,1-12.59,2-18.94,2.66l-2.84.08-1.12,0c-3,.15-6,.2-9,.59l-1.45,0a29.9,29.9,0,0,0-4.23.21c-3.42.24-6.84.4-10.26.46A8.85,8.85,0,0,0,94.68,87c.28-1.35,1.17-2.13,2.86-2.36s3.15-.4,4.73-.48c3-.15,6-.4,9-.72a102.6,102.6,0,0,1,12.27-.39,82.9,82.9,0,0,0,13.35-1.18c4.47-.69,9-1.32,13.47-1.71a32.74,32.74,0,0,1,7.48.7q7,1,13.93,2A19.52,19.52,0,0,0,174,83c4.31.06,8.63.06,12.94.2,2.34.08,4.67.36,7,.59,3.36.34,6.76.35,10.11.85C205.66,84.86,207.08,85.37,207.51,87.17Z"/><path class="cls-5" d="M207.09,420.46l-.28-.21a6.25,6.25,0,0,1-1.43-2.12,16,16,0,0,0,0-3.25,5.33,5.33,0,0,0,2.56-2.63,4.55,4.55,0,0,1,2.63-2.75,1.07,1.07,0,0,0,.74-1c.1-1,.18-1.95.24-2.93a1.24,1.24,0,0,0-.48-1,2.78,2.78,0,0,0-2.65-.9h-.32l0-1.28c.54-.29.63-.84.79-1.35,1-3.1,2.07-6.16,2.84-9.33.4-1.63,1-3.2,1.54-4.79a2.05,2.05,0,0,1,.9-1.3c0,.65.11,1.3.11,1.95,0,8.23,0,16.45,0,24.68a6.21,6.21,0,0,1-2.81,5.54C210.11,418.78,208.85,420,207.09,420.46Z"/><path class="cls-5" d="M87.57,385.65a4.91,4.91,0,0,1,1.38,2.7c1.11,3.62,2.16,7.26,3.27,10.88a6.32,6.32,0,0,0,1.16,2.49V403c-.81.31-1.63.59-2.43.93a1.55,1.55,0,0,0-1.1,1.47c.06,1.13.23,2.26.4,3.38a.8.8,0,0,0,.65.66c1.35.22,1.9,1.31,2.57,2.29.43.62.88,1.24,1.27,1.88a1.74,1.74,0,0,0,1.62.88c0,1.12,0,2.23.07,3.34a4.49,4.49,0,0,1-1.44,2.4.41.41,0,0,1-.19.2c-1.69-.3-2.8-1.62-4.21-2.4a6.67,6.67,0,0,1-2.8-3.51,3.66,3.66,0,0,1-.31-1.42q0-13.5,0-27A2.65,2.65,0,0,1,87.57,385.65Z"/><path class="cls-4" d="M92.42,104.64a20.43,20.43,0,0,1,.09,6.8,10.3,10.3,0,0,1-1.87,4.45,19.59,19.59,0,0,0-1.84,3.41c-.31.66-.6,1.28-1.36,1.51a9.38,9.38,0,0,1-.25-3.34,2.12,2.12,0,0,0,.62-1.61c.25-3.73.42-7.45.33-11.19a3.3,3.3,0,0,1,.67-2.6,4.33,4.33,0,0,0,2.07.37C90.81,103.59,92.06,103.8,92.42,104.64Z"/><path class="cls-5" d="M87.55,163a2.15,2.15,0,0,1,1.21,1.26,17,17,0,0,1,1.58,11.6,14.93,14.93,0,0,0-.57,4,5,5,0,0,1-.93,2.75,10.19,10.19,0,0,1-.52-3.37c-.28-4.83-1.12-9.63-.85-14.49C87.51,164.24,87.52,163.64,87.55,163Z"/><path class="cls-5" d="M89.32,187.32a4.89,4.89,0,0,1-.06,5.56A31.29,31.29,0,0,1,89.32,187.32Z"/><path class="cls-5" d="M213.42,256.79a1.4,1.4,0,0,1-.35-.89c.06-1.76-.29-3.54.25-5.28A22,22,0,0,1,213.42,256.79Z"/><path class="cls-5" d="M213.09,232.85a8.8,8.8,0,0,1-.09-5.18A16.67,16.67,0,0,1,213.09,232.85Z"/><path class="cls-5" d="M89,184.05a.85.85,0,0,1,.17,1.28A1.73,1.73,0,0,1,89,184.05Z"/><path class="cls-7" d="M94.7,87l-.26.28Z"/><path class="cls-8" d="M92.71,142.73l0-.64,17,0c3,0,3.27-.24,3.27-3.25V117.53a12.78,12.78,0,0,1,.08-1.64.89.89,0,0,1,1-.87c2.12,0,4.24-.33,6.37-.12a13.63,13.63,0,0,0,2.12,0c3.37-.16,6.74-.41,10.13-.4,12.17.06,24.35,0,36.52,0,2.56,0,5.14-.28,7.66.41a2,2,0,0,0,.65,0c2.84-.26,5.68-.09,8.51-.12,2.59,0,2.7.1,2.7,2.65v21a15.46,15.46,0,0,0,.05,1.8c.15,1.27.61,1.69,1.91,1.77.49,0,1,0,1.47,0l16.87,0q0,13.44,0,26.87a26.31,26.31,0,0,1-.61,4.68c-.48,2.4-1,4.79-1.55,7.18a30.17,30.17,0,0,0-.89,4.64c-.06.78-.14,1.69-1.22,1.88l-37,0H96.33c-.42-1.8-.91-3.59-1.23-5.4-.56-3.17-1.44-6.27-1.94-9.45a32.79,32.79,0,0,1-.46-5Q92.73,155.08,92.71,142.73Z"/><path class="cls-9" d="M204.84,188a9.17,9.17,0,0,1-.23,3.57c-1.68,6.61-3.32,13.23-5,19.85-1.15,4.55-2.36,9.09-3.51,13.64-1.45,5.71-2.86,11.44-4.29,17.15q-1.41,5.64-2.84,11.27c-.53,2-.55,2-2.65,2H115.19c-1.71,0-1.7,0-2.14-1.72-1.19-4.65-2.42-9.3-3.59-14-1.43-5.71-2.8-11.45-4.23-17.16-1.13-4.56-2.34-9.1-3.48-13.65-1.09-4.34-2.13-8.69-3.19-13-.41-1.64-.83-3.28-1.24-4.92,0-.21-.13-.42-.16-.64-.32-1.82.12-2.36,2-2.36L204,188Z"/><path class="cls-10" d="M208.13,403.69h.32a32.2,32.2,0,0,0,.71,4.36c.21.84,0,1.08-.86,1.19a8.68,8.68,0,0,1-1.14,0H200c-4.2,0-8.4-.14-12.58.23-2.19.19-4.35-.11-6.53-.1-1.63,0-3.25.26-4.88.22-3.38-.07-6.76,0-10.14,0h-35c-.87,0-1.75-.14-2.61-.11-1.79.06-3.58-.45-5.37-.09a15.15,15.15,0,0,1-2.61.2c-3,.09-6-.19-9-.3s-6.11,0-9.17,0H95c-2.66,0-2.67,0-2-2.52a11.74,11.74,0,0,0,.46-3.06h17c.6,0,1.2,0,1.8-.08a77.17,77.17,0,0,1,8.32-.58,67.58,67.58,0,0,0,8.64-.62c1.95-.23,2.18-.5,2.18-2.5q0-7,0-13.92c0-2-.32-2.32-2.31-2.27-9.18.21-18.34-.44-27.52-.35-2,0-3.93,0-5.9,0a49,49,0,0,1,1.52-7.68c1-4.74,2-9.49,3.18-14.21a27.78,27.78,0,0,1,1.53-5.65H197a7,7,0,0,0,2.91-.32,4.08,4.08,0,0,1,.66,1.83c.5,3.4,1.53,6.69,2.24,10.06.76,3.62,1.61,7.23,2.39,10.85.36,1.7,1.12,3.33.94,5.13h-1.81c-10.59-.2-21.17.55-31.76.34-1.92,0-2.15.25-2.16,2.2,0,3.11,0,6.23,0,9.34a24.52,24.52,0,0,0,0,5.21c.29,1.45.43,1.74,1.93,1.93a66.4,66.4,0,0,0,9.13.65,29.29,29.29,0,0,1,3.11.07,91,91,0,0,0,9.63.59C198.84,403.66,203.48,403.69,208.13,403.69Z"/><path class="cls-11" d="M199.93,355.5a7,7,0,0,1-2.91.32H101.9a10.11,10.11,0,0,1,.58-3c.93-3.87,1.76-7.76,2.78-11.6,1.07-4,1.91-8.05,2.87-12.07,1-4.24,2.09-8.46,3.12-12.69.72-3,1.41-5.94,2.12-8.9.2-.85.45-1.69.67-2.53h73.75c1.88,6.66,3.29,13.44,4.93,20.16.9,3.65,1.93,7.27,2.71,10.94s1.92,7.27,2.64,10.95C198.62,349.89,199.66,352.61,199.93,355.5Z"/><path class="cls-12" d="M187.79,305H114c.15-9.83-.53-19.64-.35-29.47a73.93,73.93,0,0,0-.06-8c-.29-3.12-.18-6.22-.25-9.33,0-.38,0-.76,0-1.14a1.17,1.17,0,0,1,1.23-1.25c.43,0,.87,0,1.31,0h70.28c2.07,0,2.3.17,2.21,2.26-.4,9.71-.06,19.43-.4,29.14C187.83,293.11,188,299.05,187.79,305Z"/><path class="cls-13" d="M205.74,318.88c-.13.26-.13.75-.61.49a4.41,4.41,0,0,1-1-.79c-4.66-4.65-9.29-9.33-14-13.94a3.07,3.07,0,0,1-.89-2.49c.1-8.4.17-16.81.27-25.21.07-6.38.21-12.77.25-19.15a26.11,26.11,0,0,1,1.09-6.1c1.52-6.2,3.18-12.36,4.68-18.56.82-3.39,1.77-6.75,2.52-10.16.93-4.21,2.24-8.32,3.06-12.55.19-1,.56-1.93.92-3.12.63.76.36,1.4.53,1.95,0,1.1,0,2.19,0,3.28q.86,29.61,1.71,59.23.65,22.26,1.3,44.51C205.58,317.14,205.68,318,205.74,318.88Z"/><path class="cls-13" d="M100.24,208.33c.44,1.91.85,3.83,1.33,5.74,1.57,6.24,3.19,12.47,4.77,18.71,1.73,6.88,3.42,13.76,5.13,20.65a17.39,17.39,0,0,1,.57,3.87q.31,22.27.65,44.56a3.75,3.75,0,0,1-1.17,3c-4.83,4.74-9.6,9.54-14.4,14.31-.18.18-.3.5-.64.39s-.34-.38-.35-.66,0-.66,0-1c0-.66.14-1.31.16-2q1-34.29,2.06-68.58c.37-12.33.52-24.67,1-37,0-1.25.17-2.5.25-3.75.2.46.41.92.61,1.39,0,0,0,.07,0,.1A1.08,1.08,0,0,0,100.24,208.33Z"/><path class="cls-14" d="M208.13,403.69c-4.65,0-9.29,0-13.93,0a91,91,0,0,1-9.63-.59,29.29,29.29,0,0,0-3.11-.07,66.4,66.4,0,0,1-9.13-.65c-1.5-.19-1.64-.48-1.93-1.93a24.52,24.52,0,0,1,0-5.21c0-3.11,0-6.23,0-9.34,0-1.95.24-2.23,2.16-2.2,10.59.21,21.17-.54,31.76-.34h1.81a13,13,0,0,1,.53,3.68c.36,2.79.53,5.61.79,8.41.21,2.32.45,4.63.67,7C208.15,402.84,208.14,403.26,208.13,403.69Z"/><path class="cls-14" d="M95.67,383.36c2,0,3.94,0,5.9,0,9.18-.09,18.34.56,27.52.35,2,0,2.31.32,2.31,2.27q0,7,0,13.92c0,2-.23,2.27-2.18,2.5a67.58,67.58,0,0,1-8.64.62,77.17,77.17,0,0,0-8.32.58c-.6.06-1.2.08-1.8.08h-17l0-.65v-1.31a6,6,0,0,0,.65-2.5q.66-7.38,1.36-14.75A7.22,7.22,0,0,1,95.67,383.36Z"/><path class="cls-12" d="M99.59,206.65c-.08,1.25-.2,2.5-.25,3.75-.51,12.33-.66,24.67-1,37q-1,34.29-2.06,68.58c0,.65-.11,1.3-.16,2A3.79,3.79,0,0,1,93.72,322c-.1-2.13.19-4.25.29-6.37.15-3.21,0-6.43.29-9.65.28-3.69.08-7.41.34-11.12.3-4.18,0-8.39.32-12.59.3-3.53,0-7.08.33-10.63.27-3.09.07-6.2.32-9.32.28-3.58.12-7.19.33-10.79.32-5.49-.12-11,.35-16.52.28-3.31.19-6.65.27-10,.13-5,.52-10,.44-15,0-3.22.5-6.42.34-9.65a2.35,2.35,0,0,1,.3-1.26Z"/><path class="cls-12" d="M205.74,318.88c-.06-.87-.16-1.74-.19-2.61q-.66-22.26-1.3-44.51-.87-29.61-1.71-59.23c0-1.09,0-2.18,0-3.28a10.1,10.1,0,0,1,.48-5.57c.62-1.56.52-3.32,1.17-4.89a2.43,2.43,0,0,1,.31,1.26c0,1.91.2,3.81.3,5.72.18,3.48.07,7,.32,10.46.29,4.19,0,8.39.32,12.6.3,3.47,0,7,.33,10.46s.13,6.75.31,10.14c.32,5.88.1,11.78.32,17.67.21,5.39.61,10.79.43,16.2a1.69,1.69,0,0,0,0,.32c.65,4.28.13,8.61.56,12.91.36,3.57.09,7.19.31,10.79.3,4.79-.06,9.61.41,14.4A3.35,3.35,0,0,1,205.74,318.88Z"/><path class="cls-10" d="M97.64,199.11a2.35,2.35,0,0,0-.3,1.26C97.5,203.6,97,206.8,97,210c.08,5-.31,10-.44,15-.08,3.32,0,6.66-.27,10-.47,5.51,0,11-.35,16.52-.21,3.6,0,7.21-.33,10.79-.25,3.12,0,6.23-.32,9.32-.31,3.55,0,7.1-.33,10.63-.36,4.2,0,8.41-.32,12.59-.26,3.71-.06,7.43-.34,11.12-.25,3.22-.14,6.44-.29,9.65-.1,2.12-.39,4.24-.29,6.37-.29.77-.15,1.81-1.32,2-.06-4.74.29-9.48.42-14.22.1-3.32,0-6.65.26-10,.5-6.16,0-12.33.36-18.48.18-3.38.21-6.76.28-10.13A27.23,27.23,0,0,0,94,268c0-.22,0-.43,0-.65-.21-5.63.24-11.24.43-16.86.13-4.2,0-8.41.28-12.59s0-8.31.34-12.43c.27-3.44,0-6.89.32-10.3.26-3.23,0-6.46.33-9.65.46-5.08.13-10.15.28-15.22a1.45,1.45,0,0,1,.66,1.23C97,194,97.31,196.58,97.64,199.11Z"/><path class="cls-10" d="M208.12,321.72c-.47-4.79-.11-9.61-.41-14.4-.22-3.6,0-7.22-.31-10.79-.43-4.3.09-8.63-.56-12.91a1.69,1.69,0,0,1,0-.32c.18-5.41-.22-10.81-.43-16.2-.22-5.89,0-11.79-.32-17.67-.18-3.39,0-6.78-.31-10.14s0-7-.33-10.46c-.36-4.21,0-8.41-.32-12.6-.25-3.49-.14-7-.32-10.46-.1-1.91-.32-3.81-.3-5.72a2.43,2.43,0,0,0-.31-1.26c.48-2.13.65-4.31,1-6.47.08-.55.11-1.1.68-1.4.35,7.53.2,15.07.41,22.59.09,3.6,0,7.21.31,10.79.28,3.39,0,6.78.31,10.14s0,6.89.35,10.3c.33,3.66,0,7.32.3,11,.33,4.2.23,8.4.3,12.6.52,4.61,0,9.26.59,13.88a5.49,5.49,0,0,1,0,.81c0,8,.38,16,.42,24.05,0,4.08.18,8.17.3,12.26,0,1.35.36,2.7.27,4.07C208.43,323.26,208.19,322.55,208.12,321.72Z"/><path class="cls-12" d="M100.24,208.33a1.08,1.08,0,0,1-.08-.19s0-.07,0-.1A.57.57,0,0,1,100.24,208.33Z"/><path class="cls-15" d="M209.08,142.09l-16.87,0c-.49,0-1,0-1.47,0-1.3-.08-1.76-.5-1.91-1.77a15.46,15.46,0,0,1-.05-1.8v-21c0-2.55-.11-2.68-2.7-2.65-2.83,0-5.67-.14-8.51.12a2,2,0,0,1-.65,0c-2.52-.69-5.1-.41-7.66-.41-12.17,0-24.35,0-36.52,0-3.39,0-6.76.24-10.13.4a13.63,13.63,0,0,1-2.12,0c-2.13-.21-4.25.14-6.37.12a.89.89,0,0,0-1,.87,12.78,12.78,0,0,0-.08,1.64v21.29c0,3-.25,3.25-3.27,3.25l-17,0q.27-2.93.52-5.85c0-.54.11-1.08.11-1.63a94.41,94.41,0,0,1,.94-12.35A45.41,45.41,0,0,0,93.63,107a15.13,15.13,0,0,1-.19-1.78,72.25,72.25,0,0,0,6.85-4.38c3.2-2,6.35-4.18,9.5-6.3,2.07-1.4,4.22-2.68,6.16-4.26l2.32-.05.66,0c5.78-.09,11.56.22,17.33-.56,3.45-.46,7-.63,10.42-1a24.66,24.66,0,0,1,5.22-.36c3.58.38,7.15.77,10.73,1.14,2.77.28,5.54.68,8.31.76,4.09.12,8.19,0,12.29,0l2.46-.31a13.47,13.47,0,0,0,2.35,2q5.84,3.87,11.68,7.71c2.91,1.9,5.73,3.93,8.72,5.69-.39,2.59-.79,5.17-1.17,7.76a13.5,13.5,0,0,0-.13,1.8c0,2.89.39,5.75.55,8.64.18,3.1.42,6.2.79,9.28S208.53,139,209.08,142.09Z"/><path class="cls-16" d="M208.44,105.32c-3-1.76-5.81-3.79-8.72-5.69q-5.85-3.84-11.68-7.71a13.47,13.47,0,0,1-2.35-2,6.65,6.65,0,0,1,.89-2.13c3.54.65,7,1.69,10.45,2.68a5,5,0,0,0,1.1.31c2.43.06,3.92,1.56,5.36,3.28,2.06,2.48,4.23,4.85,6.36,7.27.21.24.39.52.63.75a.84.84,0,0,1,0,1.39A12.62,12.62,0,0,1,208.44,105.32Z"/><path class="cls-5" d="M186.58,87.8a6.65,6.65,0,0,0-.89,2.13l-2.46.31a2.74,2.74,0,0,0-2.35-.9,21,21,0,0,1-2.74-.37l-.16-1a1.77,1.77,0,0,0,0-.23c.08-.58.62-1,.55-1.63.34-.21.49-.48,0-.63s-1.1-.33-1.33-.94a84,84,0,0,1,8.54.52A14.09,14.09,0,0,1,186.58,87.8Z"/><path class="cls-5" d="M131.39,420.17c-3.16.23-6.32.08-9.48.09a51.45,51.45,0,0,1-6.21-.1l-1.41-2,.09-1.31c4.31-.14,8.62.11,12.93-.29,3.25-.31,6.54-.29,9.8-.3,10.1,0,20.19-.29,30.29.16,5.12.22,10.25.53,15.38.41,1.47,0,2.93.38,4.4,0a3,3,0,0,0,.35,1.31c-.44.7-1.37,1.05-1.41,2a23.08,23.08,0,0,1-4.07.11c-4,0-8,.14-11.92-.11-.4-.93-1.26-1-2.06-1-1.58,0-3.16-.3-4.72-.31-4.41,0-8.81-.22-13.21-.38-1.91-.07-3.78.45-5.7.33-3.54-.22-7.06.26-10.59.35A2.71,2.71,0,0,0,131.39,420.17Z"/><path class="cls-3" d="M131.39,420.17a2.71,2.71,0,0,1,2.46-1c3.53-.09,7.05-.57,10.59-.35,1.92.12,3.79-.4,5.7-.33,4.4.16,8.8.37,13.21.38,1.56,0,3.14.28,4.72.31.8,0,1.66.08,2.06,1a5.68,5.68,0,0,1-1.79.13H133.18A6,6,0,0,1,131.39,420.17Z"/><path class="cls-3" d="M186.12,420.16c0-1,1-1.33,1.41-2h17.85a6.25,6.25,0,0,0,1.43,2.12l-19.89,0A5.74,5.74,0,0,1,186.12,420.16Z"/><path class="cls-3" d="M114.29,418.13l1.41,2a6.45,6.45,0,0,1-1,.13l-19.74,0a4.49,4.49,0,0,0,1.44-2.4,6.53,6.53,0,0,0,2.41.26Z"/><path class="cls-3" d="M90.88,102.44a4.33,4.33,0,0,1-2.07-.37c1.18-1.35,2.33-2.74,3.57-4,1.81-1.89,3.55-3.85,5.23-5.85a8.78,8.78,0,0,1,4.72-3c3.8-1,7.51-2.31,11.25-3.49a1,1,0,0,0,.71-.63l1.45,0c-.15.9-.3,1.8-.44,2.7-1.64.42-3.29.78-4.93,1.19-2.7.67-5.32,1.64-8.06,2.14A3.68,3.68,0,0,0,100,92.23c-1.36,1.63-2.74,3.25-4.19,4.79C94.15,98.8,92.71,100.8,90.88,102.44Z"/><path class="cls-16" d="M90.88,102.44c1.83-1.64,3.27-3.64,5-5.42,1.45-1.54,2.83-3.16,4.19-4.79a3.68,3.68,0,0,1,2.29-1.16c2.74-.5,5.36-1.47,8.06-2.14,1.64-.41,3.29-.77,4.93-1.19a3.41,3.41,0,0,1,.65,2.55c-1.94,1.58-4.09,2.86-6.16,4.26-3.15,2.12-6.3,4.26-9.5,6.3a72.25,72.25,0,0,1-6.85,4.38l-1-.59C92.06,103.8,90.81,103.59,90.88,102.44Z"/><path class="cls-3" d="M177.22,84.5c.23.61.76.78,1.33.94s.33.42,0,.63c-3.15-.34-6.33-.21-9.46-.56-4.93-.56-9.84-1.31-14.75-2a22.42,22.42,0,0,0-6.18-.1c-7.18.91-14.31,2.37-21.59,2.45a6.33,6.33,0,0,0-3.2.52c-.52-.31-.86-.67,0-.93.59-.18,1.35,0,1.41-1l1.12,0c1.12.9,1.83.88,2.84-.08,6.35-.67,12.65-1.64,18.94-2.66a24.23,24.23,0,0,1,7.65.16c4.74.73,9.47,1.49,14.23,2.14,1.83.25,3.69.22,5.54.34C175.81,84.34,176.51,84.43,177.22,84.5Z"/><path class="cls-5" d="M124.78,84.45c-.06.93-.82.79-1.41,1-.87.26-.53.62,0,.93a2.74,2.74,0,0,1,.33,2.28,3.64,3.64,0,0,1-2.44.68c-1.06,0-2.19,0-3,.93l-2.32.05a3.41,3.41,0,0,0-.65-2.55c.14-.9.29-1.8.44-2.7C118.74,84.65,121.76,84.6,124.78,84.45Z"/><path class="cls-5" d="M128.74,84.32c-1,1-1.72,1-2.84.08Z"/><path class="cls-4" d="M187.18,416.82c-1.47.36-2.93-.06-4.4,0-5.13.12-10.26-.19-15.38-.41-10.1-.45-20.19-.2-30.29-.16-3.26,0-6.55,0-9.8.3-4.31.4-8.62.15-12.93.29a2.55,2.55,0,0,0-1.24-.33c-5.63-.36-11.19-1.28-16.78-2a1.74,1.74,0,0,1-1.62-.88c-.39-.64-.84-1.26-1.27-1.88-.67-1-1.22-2.07-2.57-2.29a.8.8,0,0,1-.65-.66c-.17-1.12-.34-2.25-.4-3.38A1.55,1.55,0,0,1,91,404c.8-.34,1.62-.62,2.43-.93l0,.65a11.74,11.74,0,0,1-.46,3.06c-.63,2.51-.62,2.52,2,2.52h7c3.06,0,6.12-.09,9.17,0s6,.39,9,.3a15.15,15.15,0,0,0,2.61-.2c1.79-.36,3.58.15,5.37.09.86,0,1.74.11,2.61.11h35c3.38,0,6.76,0,10.14,0,1.63,0,3.25-.21,4.88-.22,2.18,0,4.34.29,6.53.1,4.18-.37,8.38-.22,12.58-.23h7.21a8.68,8.68,0,0,0,1.14,0c.86-.11,1.07-.35.86-1.19a32.2,32.2,0,0,1-.71-4.36,2.78,2.78,0,0,1,2.65.9,1.24,1.24,0,0,1,.48,1c-.06,1-.14,1.95-.24,2.93a1.07,1.07,0,0,1-.74,1,4.55,4.55,0,0,0-2.63,2.75,5.33,5.33,0,0,1-2.56,2.63,25.58,25.58,0,0,0-4.37.19c-3.23.39-6.43,1-9.69,1.15A16.47,16.47,0,0,0,187.18,416.82Z"/><path class="cls-10" d="M187.18,416.82a16.47,16.47,0,0,1,4.17-.6c3.26-.15,6.46-.76,9.69-1.15a25.58,25.58,0,0,1,4.37-.19,16,16,0,0,1,0,3.25H187.53A3,3,0,0,1,187.18,416.82Z"/><path class="cls-10" d="M96.36,414.52c5.59.69,11.15,1.61,16.78,2a2.55,2.55,0,0,1,1.24.33l-.09,1.31H98.84a6.53,6.53,0,0,1-2.41-.26C96.41,416.75,96.38,415.64,96.36,414.52Z"/><path class="cls-3" d="M118.27,90.24c.79-1,1.92-.9,3-.93a3.64,3.64,0,0,0,2.44-.68,1.71,1.71,0,0,0,1.36.44c3,0,6,.15,9-.13,4.34-.4,8.68-.85,13-1.23a24.77,24.77,0,0,1,4.55-.34l15.45,1.51a54.09,54.09,0,0,0,11.09.09,21,21,0,0,0,2.74.37,2.74,2.74,0,0,1,2.35.9c-4.1,0-8.2.11-12.29,0-2.77-.08-5.54-.48-8.31-.76-3.58-.37-7.15-.76-10.73-1.14a24.66,24.66,0,0,0-5.22.36c-3.47.38-7,.55-10.42,1-5.77.78-11.55.47-17.33.56Z"/><path class="cls-7" d="M178.14,89a54.09,54.09,0,0,1-11.09-.09L151.6,87.37a24.77,24.77,0,0,0-4.55.34c-4.34.38-8.68.83-13,1.23-3,.28-6,.11-9,.13a1.71,1.71,0,0,1-1.36-.44,2.74,2.74,0,0,0-.33-2.28,6.33,6.33,0,0,1,3.2-.52c7.28-.08,14.41-1.54,21.59-2.45a22.42,22.42,0,0,1,6.18.1c4.91.72,9.82,1.47,14.75,2,3.13.35,6.31.22,9.46.56.07.63-.47,1.05-.55,1.63l-.08.11.07.12Z"/><path class="cls-3" d="M178,87.93l-.07-.12.08-.11A1.77,1.77,0,0,1,178,87.93Z"/></g><g id="Layer_7" data-name="Layer 7"><line class="cls-17" x1="225.93" y1="9.84" x2="225.93" y2="448.36"/><line class="cls-17" x1="75.81" y1="9.84" x2="75.81" y2="448.36"/><line class="cls-17" y1="79.58" x2="267.26" y2="79.58"/><rect class="cls-2" x="195.24" y="315.28" width="18" height="58.58" rx="4.15" transform="translate(408.48 689.14) rotate(-180)"/><line class="cls-17" y1="423.57" x2="267.26" y2="423.57"/><line class="cls-17" y1="344.57" x2="69.93" y2="344.57"/><line class="cls-17" y1="147.25" x2="69.93" y2="147.25"/><rect class="cls-2" x="88.85" y="315.28" width="18" height="58.58" rx="4.15" transform="translate(195.7 689.14) rotate(-180)"/><line class="cls-17" x1="204.19" y1="9.84" x2="204.19" y2="61.7"/><line class="cls-17" x1="98.24" y1="9.84" x2="98.24" y2="61.7"/></g><g id="Layer_8" data-name="Layer 8"><line class="cls-18" x1="6.9" y1="333.39" x2="6.9" y2="158.48"/><polygon class="cls-19" points="13.57 328.33 6.91 331.16 0.24 328.33 6.91 344.13 13.57 328.33"/><polygon class="cls-19" points="13.57 163.54 6.91 160.71 0.24 163.54 6.91 147.74 13.57 163.54"/><text class="cls-20" transform="translate(11.47 252.3)">wheelbase</text><text class="cls-20" transform="translate(11.47 385.69)">rear_overhang</text><text class="cls-21" transform="translate(129.39 8.85)">track_width</text><text class="cls-21" transform="translate(142.19 448.78)">width</text><line class="cls-22" x1="108.36" y1="16.59" x2="193.49" y2="16.9"/><polygon class="cls-23" points="113.39 23.28 110.58 16.6 113.44 9.95 97.61 16.55 113.39 23.28"/><polygon class="cls-23" points="188.41 23.55 191.27 16.89 188.46 10.22 204.24 16.94 188.41 23.55"/><line class="cls-22" x1="86.56" y1="439.47" x2="215.18" y2="439.47"/><polygon class="cls-23" points="91.62 446.13 88.78 439.47 91.62 432.8 75.81 439.47 91.62 446.13"/><polygon class="cls-23" points="210.13 446.13 212.96 439.47 210.13 432.8 225.93 439.47 210.13 446.13"/><line class="cls-24" x1="207.82" y1="16.94" x2="222.34" y2="16.94"/><polygon class="cls-23" points="209.51 19.16 208.56 16.94 209.51 14.72 204.24 16.94 209.51 19.16"/><polygon class="cls-23" points="220.66 19.16 221.6 16.94 220.66 14.72 225.93 16.94 220.66 19.16"/><line class="cls-24" x1="80.18" y1="16.52" x2="94.7" y2="16.52"/><polygon class="cls-23" points="81.87 18.74 80.92 16.52 81.87 14.29 76.6 16.52 81.87 18.74"/><polygon class="cls-23" points="93.02 18.74 93.96 16.52 93.02 14.29 98.29 16.52 93.02 18.74"/><line class="cls-18" x1="6.9" y1="412.29" x2="6.9" y2="356.03"/><polygon class="cls-19" points="13.57 407.24 6.91 410.07 0.24 407.24 6.91 423.04 13.57 407.24"/><polygon class="cls-19" points="13.57 361.09 6.91 358.26 0.24 361.09 6.91 345.29 13.57 361.09"/><line class="cls-18" x1="6.9" y1="136.02" x2="6.9" y2="90.32"/><polygon class="cls-19" points="13.57 130.96 6.91 133.8 0.24 130.96 6.91 146.76 13.57 130.96"/><polygon class="cls-19" points="13.57 95.38 6.91 92.55 0.24 95.38 6.91 79.58 13.57 95.38"/><text class="cls-20" transform="translate(11.47 115.17)">front_overhang</text><path class="cls-25" d="M72.18,75.94A58.65,58.65,0,0,0,63,77.1h0a61,61,0,0,1,7.21-6.4l-.5,1.82,1.21-.46.61-.22L73,71.31a63.09,63.09,0,0,1,6.44-1.73A62.08,62.08,0,0,1,92.72,68.2v2.55A60.85,60.85,0,0,0,80,72.07a61.62,61.62,0,0,0-6.17,1.66l-1.46.51c-.19.07-.39.13-.58.21l-1.16.44Z"/><rect class="cls-26" x="89.24" y="117.96" width="18" height="58.58" rx="4.15" transform="translate(196.48 294.5) rotate(-180)"/><rect class="cls-2" x="89.23" y="117.94" width="18" height="58.58" rx="4.15" transform="translate(256.92 225.62) rotate(150)"/><line class="cls-27" x1="98.19" y1="147.25" x2="59.64" y2="80.47"/><line class="cls-27" x1="98.19" y1="147.25" x2="98.19" y2="70.14"/><text class="cls-28" transform="translate(67.41 65.44)">+30°</text><text class="cls-29" transform="translate(204.19 4.32)">right_overhang</text><text class="cls-29" transform="translate(62.98 4.32)">left_overhang</text><line class="cls-18" x1="260.83" y1="412.83" x2="260.83" y2="90.32"/><polygon class="cls-19" points="267.5 407.77 260.83 410.6 254.17 407.77 260.83 423.57 267.5 407.77"/><polygon class="cls-19" points="267.5 95.38 260.83 92.55 254.17 95.38 260.83 79.58 267.5 95.38"/><text class="cls-20" transform="translate(232.82 254.94)">length</text><path class="cls-25" d="M178.18,75.94A58.65,58.65,0,0,0,169,77.1h0a61,61,0,0,1,7.21-6.4l-.5,1.82,1.21-.46.61-.22,1.51-.53a63.09,63.09,0,0,1,6.44-1.73,62.08,62.08,0,0,1,13.24-1.38v2.55A60.85,60.85,0,0,0,186,72.07a61.62,61.62,0,0,0-6.17,1.66l-1.46.51c-.19.07-.39.13-.58.21l-1.16.44Z"/><rect class="cls-26" x="195.24" y="117.96" width="18" height="58.58" rx="4.15" transform="translate(408.48 294.5) rotate(-180)"/><rect class="cls-2" x="195.23" y="117.94" width="18" height="58.58" rx="4.15" transform="translate(454.72 172.62) rotate(150)"/><line class="cls-27" x1="204.19" y1="147.25" x2="165.64" y2="80.47"/><line class="cls-27" x1="204.19" y1="147.25" x2="204.19" y2="70.14"/><text class="cls-28" transform="translate(173.41 65.44)">+30°</text></g><g id="Layer_6" data-name="Layer 6"><line class="cls-30" x1="81.15" y1="147.25" x2="221.04" y2="147.25"/><line class="cls-31" x1="150.71" y1="68.56" x2="150.71" y2="431.47"/><line class="cls-32" x1="81.15" y1="344.57" x2="221.04" y2="344.57"/><circle class="cls-33" cx="150.71" cy="344.57" r="1.54"/></g></g></svg>